# xmcd CD database file
#
# Track frame offsets:
#	150
#	13335
#	24862
#	38657
#	57355
#	71975
#	86462
#	101597
#	114035
#	126695
#	139595
#	152805
#
# Disc length: 2256 seconds
#
# Revision: 2
# Processed by: cddbd v1.4b41PL1 Copyright (c) Steve Scherf et al.
# Submitted via: Feurio! 1.50.2ß - http://www.feurio.com
#
DISCID=9d08ce0c
DTITLE=Stefanie Hertel - Über Jedes Bacheerl geht a Brückerl
DYEAR=1900
DGENRE=
TTITLE0=Über Jedes Bacheerl geht a Brückerl
TTITLE1=Mit Sonnenschein im Herzen
TTITLE2=Achmed (wo die Sonne immer scheint)
TTITLE3=Mama Veronica
TTITLE4=Kleiner Clown
TTITLE5=Mit einem Rucksack voller Lieder
TTITLE6=Das Glück fällt leise vom Himmel
TTITLE7=Heut möcht' ich am liebsten ein Schmetterling sein
TTITLE8=Für Opa ist immer ein Zimmer frei
TTITLE9=Auf einer Insel am Ende der Welt
TTITLE10=Er wäre gern ein Cowboy
TTITLE11=Die alte Bieke darf nicht sterben
EXTD=
EXTT0=
EXTT1=
EXTT2=
EXTT3=
EXTT4=
EXTT5=
EXTT6=
EXTT7=
EXTT8=
EXTT9=
EXTT10=
EXTT11=
PLAYORDER=
